<?xml version="1.0" encoding="iso-8859-1"?>
<!-- Generator: Adobe Illustrator 19.0.0, SVG Export Plug-In . SVG Version: 6.00 Build 0)  -->
<svg version="1.1" id="Capa_1" xmlns="http://www.w3.org/2000/svg" xmlns:xlink="http://www.w3.org/1999/xlink" x="0px" y="0px"
	 viewBox="0 0 468.293 468.293" style="enable-background:new 0 0 468.293 468.293;" xml:space="preserve">
<path style="fill:#E1E6E9;" d="M94.986,0.001L12.622,82.366v367.196c0,10.345,8.386,18.732,18.732,18.732h288.892
	c10.345,0,18.732-8.386,18.732-18.732V18.732c0-10.345-8.386-18.732-18.732-18.732C320.245,0.001,94.986,0.001,94.986,0.001z"/>
<g>
	<polygon style="fill:#D5D6DB;" points="94.986,82.365 94.986,0 12.622,82.365 	"/>
	<rect x="70.388" y="132.652" style="fill:#D5D6DB;" width="210.825" height="12.488"/>
	<rect x="70.388" y="196.153" style="fill:#D5D6DB;" width="210.825" height="12.488"/>
	<rect x="70.388" y="259.684" style="fill:#D5D6DB;" width="210.825" height="12.488"/>
	<rect x="70.388" y="323.122" style="fill:#D5D6DB;" width="210.825" height="12.488"/>
	<rect x="70.388" y="386.623" style="fill:#D5D6DB;" width="210.825" height="12.488"/>
</g>
<path style="fill:#31978C;" d="M274.154,393.51L274.154,393.51c2.604,1.078,5.589-0.158,6.667-2.762l9.764-23.572l-9.429-3.905
	l-9.764,23.572C270.314,389.447,271.55,392.432,274.154,393.51z"/>
<path style="fill:#44C4A1;" d="M274.367,325.219l1.411,50.427c0.122,4.35,5.282,6.561,8.516,3.649l37.999-34.224L445.504,47.613
	l-47.926-19.852L274.367,325.219z"/>
<path style="fill:#31978C;" d="M352.105,116.14l63.06,26.12l37.9-91.499c7.213-17.414-1.056-37.377-18.47-44.59l0,0
	c-17.414-7.213-37.377,1.056-44.59,18.47L352.105,116.14z"/>
<path style="fill:#3EA69B;" d="M356.92,191.53L356.92,191.53c3.905,1.618,8.383-0.237,10.001-4.142l37.102-89.572
	c1.618-3.905-0.237-8.383-4.142-10.001l0,0c-3.905-1.618-8.383,0.237-10.001,4.142l-37.102,89.572
	C351.16,185.435,353.014,189.913,356.92,191.53z"/>
<g>
</g>
<g>
</g>
<g>
</g>
<g>
</g>
<g>
</g>
<g>
</g>
<g>
</g>
<g>
</g>
<g>
</g>
<g>
</g>
<g>
</g>
<g>
</g>
<g>
</g>
<g>
</g>
<g>
</g>
</svg>
