<?xml version="1.0" encoding="iso-8859-1"?>
<!-- Generator: Adobe Illustrator 18.0.0, SVG Export Plug-In . SVG Version: 6.00 Build 0)  -->
<!DOCTYPE svg PUBLIC "-//W3C//DTD SVG 1.1//EN" "http://www.w3.org/Graphics/SVG/1.1/DTD/svg11.dtd">
<svg version="1.1" id="Capa_1" xmlns="http://www.w3.org/2000/svg" xmlns:xlink="http://www.w3.org/1999/xlink" x="0px" y="0px"
	 viewBox="0 0 360.984 360.984" style="enable-background:new 0 0 360.984 360.984;" xml:space="preserve">
<g>
	<polygon points="217.646,183.577 229.407,183.577 223.49,170.812 	"/>
	<path d="M171.329,164.241h-6.927v13.08l9.718,0.004c1.798-0.489,5.669-2.077,5.669-6.674
		C179.789,168.898,179.789,164.241,171.329,164.241z"/>
	<path d="M123.251,163.544h-12.029v33.404h12.029c9.503,0,17.234-7.48,17.234-16.673
		C140.485,171.05,132.754,163.544,123.251,163.544z"/>
	<path d="M345.984,91.765H58.523c-5.308,0-10.22,2.805-12.917,7.375L2.083,172.867c-2.777,4.704-2.777,10.546,0,15.25l43.524,73.728
		c2.697,4.57,7.609,7.375,12.917,7.375h287.461c8.284,0,15-6.716,15-15V106.765C360.984,98.48,354.269,91.765,345.984,91.765z
		 M123.251,207.407h-17.259c-2.889,0-5.229-2.341-5.229-5.229v-43.863c0-2.889,2.341-5.229,5.229-5.229h17.259
		c15.27,0,27.692,12.197,27.692,27.19C150.943,195.236,138.521,207.407,123.251,207.407z M192.486,206.677
		c-2.326,1.709-5.6,1.212-7.313-1.114l-13.078-17.779l-7.693-0.003v15.095c0,2.889-2.342,5.23-5.229,5.23
		c-2.889,0-5.23-2.341-5.23-5.23v-43.863c0-2.889,2.341-5.23,5.23-5.23h12.156c11.67,0,18.919,6.464,18.919,16.869
		c0,5.798-2.813,10.876-7.435,14.052l10.787,14.662C195.311,201.691,194.813,204.965,192.486,206.677z M245.992,206.922
		c-2.62,1.214-5.729,0.076-6.943-2.545l-4.794-10.341h-21.396l-4.725,10.318c-0.879,1.921-2.775,3.054-4.758,3.054
		c-0.729,0-1.469-0.152-2.174-0.476c-2.626-1.202-3.78-4.306-2.578-6.932l20.082-43.863c0.85-1.856,2.701-3.048,4.742-3.053h0.013
		c2.036,0,3.888,1.182,4.744,3.03l20.332,43.863C249.752,202.599,248.612,205.708,245.992,206.922z M283.63,163.339h-20.314v11.88
		h16.249c2.889,0,5.229,2.341,5.229,5.23c0,2.889-2.341,5.229-5.229,5.229h-16.249v16.869c0,2.889-2.342,5.229-5.229,5.229
		c-2.889,0-5.23-2.341-5.23-5.229v-44.438c0-2.889,2.341-5.23,5.23-5.23h25.543c2.889,0,5.229,2.341,5.229,5.23
		S286.519,163.339,283.63,163.339z M324.992,163.56h-9.17v37.377c0,2.889-2.341,5.229-5.229,5.229s-5.229-2.341-5.229-5.229V163.56
		h-7.913c-2.89,0-5.229-2.341-5.229-5.229c0-2.889,2.34-5.23,5.229-5.23h13.143h14.399c2.889,0,5.229,2.341,5.229,5.23
		C330.222,161.219,327.881,163.56,324.992,163.56z"/>
</g>
<g>
</g>
<g>
</g>
<g>
</g>
<g>
</g>
<g>
</g>
<g>
</g>
<g>
</g>
<g>
</g>
<g>
</g>
<g>
</g>
<g>
</g>
<g>
</g>
<g>
</g>
<g>
</g>
<g>
</g>
</svg>
