<?xml version="1.0" encoding="iso-8859-1"?>
<!-- Generator: Adobe Illustrator 18.0.0, SVG Export Plug-In . SVG Version: 6.00 Build 0)  -->
<!DOCTYPE svg PUBLIC "-//W3C//DTD SVG 1.1//EN" "http://www.w3.org/Graphics/SVG/1.1/DTD/svg11.dtd">
<svg version="1.1" id="Capa_1" xmlns="http://www.w3.org/2000/svg" xmlns:xlink="http://www.w3.org/1999/xlink" x="0px" y="0px"
	 viewBox="0 0 58 58" style="enable-background:new 0 0 58 58;" xml:space="preserve">
<g>
	<path style="fill:#E95853;" d="M27.139,0.733L0,25.999v0.043h58v-0.043L30.861,0.733C29.813-0.244,28.187-0.244,27.139,0.733z"/>
	<g>
		<rect x="0" y="26.042" style="fill:#C64645;" width="58" height="31.958"/>
	</g>
	<path style="fill:#D75A4A;" d="M0.091,26.05l57.511,31.711c-0.033,0.128-0.029,0.111-0.062,0.239H0.129C0.058,58,0,57.942,0,57.871
		l0-31.767C0,26.057,0.05,26.027,0.091,26.05z"/>
	<path style="fill:#ED7161;" d="M57.909,26.05L29,41.99l28.602,15.771c-0.033,0.127-0.029,0.112-0.062,0.239h0.331
		C57.942,58,58,57.942,58,57.871V26.103C58,26.057,57.95,26.027,57.909,26.05z"/>
</g>
<g>
</g>
<g>
</g>
<g>
</g>
<g>
</g>
<g>
</g>
<g>
</g>
<g>
</g>
<g>
</g>
<g>
</g>
<g>
</g>
<g>
</g>
<g>
</g>
<g>
</g>
<g>
</g>
<g>
</g>
</svg>
