<?xml version="1.0" encoding="iso-8859-1"?>
<!-- Generator: Adobe Illustrator 19.0.0, SVG Export Plug-In . SVG Version: 6.00 Build 0)  -->
<svg version="1.1" id="Layer_1" xmlns="http://www.w3.org/2000/svg" xmlns:xlink="http://www.w3.org/1999/xlink" x="0px" y="0px"
	 viewBox="0 0 508.525 508.525" style="enable-background:new 0 0 508.525 508.525;" xml:space="preserve">
<circle style="fill:#324A5E;" cx="254.262" cy="254.22" r="217.007"/>
<path style="fill:#E6E9EE;" d="M166.442,155.889l-16.615,57.981c-0.678,2.374-3.052,3.73-5.764,3.052l-31.534-9.155
	c-2.374-0.678-3.73-3.052-3.052-5.764l16.615-57.981c0.678-2.374,3.052-3.73,5.764-3.052l31.534,9.155
	C165.764,151.142,167.121,153.515,166.442,155.889z"/>
<path style="fill:#FFFFFF;" d="M127.788,141.987l12.885,38.315l-31.195,25.43c-0.339-1.017-0.678-2.034-0.339-3.052l16.615-58.321
	C126.432,143.343,126.771,142.326,127.788,141.987z"/>
<path style="fill:#FFD05B;" d="M177.971,187.762l-3.391-1.356c0,0-2.374-29.499-21.023-16.954c-1.695,1.017-2.374,3.052-1.695,5.086
	c0.678,2.034,2.713,3.73,8.477,3.73l-6.442,21.701c0,0,7.799,3.73,12.885,0.339l6.442,5.764l10.85-14.919L177.971,187.762z"/>
<path style="fill:#F9B54C;" d="M355.645,323.391h36.62c4.069,0,7.46-3.73,6.781-7.799l-6.781-50.522
	c-0.339-3.73-4.069-6.781-7.46-6.781h-31.195c-3.73,0-6.442,3.052-5.764,6.781L355.645,323.391z"/>
<path style="fill:#FFD05B;" d="M385.144,347.465h-30.856c-3.73,0-6.781-3.052-6.781-6.781v-75.274c0-3.73,3.052-6.781,6.781-6.781
	h30.856c3.73,0,6.781,3.052,6.781,6.781v75.274C391.926,344.413,388.874,347.465,385.144,347.465z"/>
<path style="fill:#F9B54C;" d="M382.432,336.275h-25.43c-2.034,0-3.73-1.695-3.73-3.73v-39.332c0-2.034,1.695-3.73,3.73-3.73h25.43
	c2.034,0,3.73,1.695,3.73,3.73v39.332C386.162,334.58,384.466,336.275,382.432,336.275z"/>
<g>
	<path style="fill:#2C9984;" d="M382.771,218.278c0.678,7.799-2.034,15.258-7.46,20.683c-5.086,5.086-12.546,11.868-22.379,18.31
		c-4.747,3.052-10.172,6.103-15.936,8.816l-9.833-26.109l22.379-15.258l10.172-7.121l-8.138-26.448
		c3.73-35.942,11.529-69.171,11.529-69.171S378.702,156.906,382.771,218.278z"/>
	<polygon style="fill:#2C9984;" points="349.203,492.927 353.611,308.472 350.22,259.306 301.054,259.645 301.054,336.954 
		320.721,492.927 	"/>
	<polygon style="fill:#2C9984;" points="283.083,493.266 302.411,336.954 302.072,259.645 252.567,259.645 249.515,308.811 
		254.94,493.266 	"/>
</g>
<g>
	<path style="fill:#2B3B4E;" d="M348.525,492.927h-27.804v11.528c0,2.034,1.695,3.73,3.73,3.73h37.976v-1.356
		C362.426,499.03,356.323,492.927,348.525,492.927z"/>
	<path style="fill:#2B3B4E;" d="M255.279,493.266h27.804v11.528c0,2.034-1.695,3.73-3.73,3.73h-37.976v-1.356
		C241.717,499.37,247.82,493.266,255.279,493.266z"/>
</g>
<polygon style="fill:#E6E9EE;" points="318.347,195.221 281.388,195.56 280.032,111.47 319.025,111.131 "/>
<polygon style="fill:#FF7058;" points="309.192,149.107 304.445,118.252 297.664,118.252 293.256,149.107 "/>
<g>
	<path style="fill:#4CDBC4;" d="M353.95,261.679c-13.563-42.384,9.155-139.359,9.155-139.359
		c-36.281-6.781-43.401-23.735-43.401-23.735c0,40.689-18.649,51.539-18.649,51.539s-18.649-6.442-18.988-51.539
		c0,0-6.781,17.293-43.062,24.074c0,0,23.396,96.975,9.833,139.359c0,0-6.781,44.419-4.747,55.947c0,5.425,25.77,9.494,57.303,9.494
		s57.303-4.408,57.303-9.833l0,0C361.07,305.759,353.95,261.679,353.95,261.679z"/>
	<path style="fill:#4CDBC4;" d="M363.105,121.981c0,0-33.568-18.988-43.401-23.735l-1.017,30.177L363.105,121.981z"/>
	<path style="fill:#4CDBC4;" d="M239.004,122.321c0,0,33.568-19.327,43.062-24.074l1.017,30.177L239.004,122.321z"/>
</g>
<g>
	<path style="fill:#FFD05B;" d="M301.054,116.556L301.054,116.556L301.054,116.556z"/>
	<path style="fill:#FFD05B;" d="M314.278,74.511l-12.885-0.678l0,0l0,0l0,0l0,0l-12.885,0.678c0,0,1.017,11.528-4.747,22.04v14.58
		l17.632,1.017l0,0l16.954-0.678V95.195C313.261,85.023,314.278,74.511,314.278,74.511z"/>
	<polygon style="fill:#FFD05B;" points="301.393,116.556 301.393,116.556 301.054,116.556 	"/>
	<path style="fill:#FFD05B;" d="M301.054,116.556L301.054,116.556L301.054,116.556z"/>
	<polygon style="fill:#FFD05B;" points="301.393,116.556 301.393,116.556 301.054,116.556 	"/>
</g>
<polygon style="fill:#F1543F;" points="304.784,118.252 297.664,118.252 295.968,111.131 306.479,111.131 "/>
<g>
	<path style="fill:#2B3B4E;" d="M310.887,208.784c0,2.374-1.695,4.069-3.73,4.069c-2.034,0-3.73-2.034-3.73-4.069
		c0-2.374,1.695-4.069,3.73-4.069C309.192,204.376,310.887,206.411,310.887,208.784z"/>
	<circle style="fill:#2B3B4E;" cx="307.497" cy="255.237" r="4.069"/>
	<circle style="fill:#2B3B4E;" cx="307.497" cy="231.841" r="4.069"/>
</g>
<path style="fill:#F9B54C;" d="M315.634,88.413l-1.017,1.356c-2.373,2.713-5.764,4.747-9.494,5.425l-2.374,0.339
	c-1.356,0.339-2.713,0.339-4.069,0l-2.374-0.339c-3.73-0.339-7.121-2.374-9.494-5.086l-0.339-1.017
	c2.373-7.799,1.695-14.58,1.695-14.58l12.885-0.678l0,0l0,0l0,0l0,0l12.885,0.678C314.278,74.511,313.6,80.954,315.634,88.413z"/>
<g>
	<path style="fill:#FFD05B;" d="M300.715,32.805h-24.413l4.069,41.367c0.339,3.052,1.356,5.764,3.391,7.799l3.391,4.069
		c2.374,2.713,5.764,4.747,9.494,5.086l2.374,0.339c1.356,0.339,2.713,0.339,4.069,0l2.374-0.339
		c3.73-0.678,7.121-2.374,9.494-5.425l3.391-4.069c1.695-2.374,3.052-5.086,3.391-7.799l3.73-41.367L300.715,32.805z"/>
	
		<ellipse transform="matrix(0.3565 -0.9343 0.9343 0.3565 156.717 338.5103)" style="fill:#FFD05B;" cx="324.099" cy="55.487" rx="6.103" ry="4.069"/>
	
		<ellipse transform="matrix(0.3605 0.9328 -0.9328 0.3605 229.279 -223.2007)" style="fill:#FFD05B;" cx="277.415" cy="55.607" rx="6.104" ry="4.069"/>
</g>
<g>
	<path style="fill:#324A5E;" d="M282.066,41.621h-10.85c0.339,1.695,1.017,3.391,2.034,4.747c2.713,5.425,7.799,14.919,7.799,14.919
		C279.354,53.15,280.71,46.368,282.066,41.621z"/>
	<path style="fill:#324A5E;" d="M319.025,41.621c2.713,5.086,3.052,16.615,3.052,16.615c1.017-6.781,4.069-7.121,4.069-7.121
		c0.678-3.73,1.356-6.781,1.695-9.494H319.025z"/>
</g>
<g>
	<path style="fill:#4CDBC4;" d="M325.807,7.375l-22.718-7.121c-1.356-0.339-3.052-0.339-4.408,0l-22.718,7.46
		c-1.695,0.678-3.391,1.695-4.069,3.391l-9.155,15.597c-1.017,1.695-1.356,4.069-0.339,5.764
		c1.695,5.086,6.442,13.902,15.936,13.563h22.379h22.379c9.494,0.339,13.902-8.477,15.936-13.563
		c0.678-2.034,0.339-4.069-0.678-5.764l-8.816-15.597C328.858,9.07,327.502,8.053,325.807,7.375z"/>
	<path style="fill:#4CDBC4;" d="M274.607,45.351c0.339,2.374,3.391,4.408,8.138,6.442c4.747,2.034,11.189,4.069,17.971,3.73
		c6.781,0,13.224-2.034,17.971-4.069c4.747-2.034,7.799-4.069,8.138-6.442C310.209,37.552,291.221,37.552,274.607,45.351z"/>
</g>
<g>
	<path style="fill:#2C9984;" d="M326.824,45.69c-6.442-3.391-15.936-5.764-26.109-5.764c-10.511,0-19.666,2.374-26.109,5.764
		c0-9.833,11.868-17.971,26.109-17.971C314.956,27.719,326.824,35.857,326.824,45.69z"/>
	<path style="fill:#2C9984;" d="M301.393,149.785c0,0-0.678-0.339-2.034-1.017l0.339,178.691c0.678,0,1.356,0,2.034,0
		s1.017,0,1.695,0l-0.339-178.691C302.072,149.446,301.393,149.785,301.393,149.785z"/>
</g>
<g>
	<path style="fill:#FFFFFF;" d="M317.33,93.16c0,0,7.121,7.121-1.695,28.143c0,0-10.172-11.528-16.615-9.494
		C299.02,112.148,313.939,107.74,317.33,93.16z"/>
	<path style="fill:#FFFFFF;" d="M284.779,93.16c0,0-7.121,7.121,2.034,28.143c0,0,10.172-11.528,16.615-9.494
		C303.089,111.809,288.17,107.74,284.779,93.16z"/>
</g>
<path style="fill:#2C9984;" d="M326.146,106.384l7.46,3.73c0,0-8.816,27.804-32.551,40.011l0,0l0,0
	c-23.735-11.868-32.551-39.672-32.551-39.672l7.46-3.73l-7.799-2.713c7.46-10.85,16.954-10.511,16.954-10.511
	c-3.73,34.924,12.546,52.217,15.936,55.608c3.391-3.73,19.666-21.023,15.936-55.947c0,0,9.494-0.678,16.954,10.511L326.146,106.384z
	"/>
<path style="fill:#E6E9EE;" d="M303.767,152.498h-5.086c-0.678,0-1.017-0.339-1.017-1.017v-3.391c0-0.678,0.339-1.017,1.017-1.017
	h5.086c0.678,0,1.017,0.339,1.017,1.017v3.391C304.784,152.159,304.106,152.498,303.767,152.498z"/>
<path style="fill:#FFFFFF;" d="M301.054,149.785c-1.356,0-2.713,6.103-2.713,10.172c0,4.069,1.356,4.747,2.713,4.747
	s2.713-0.678,2.713-4.747C303.767,155.889,302.411,149.785,301.054,149.785z M301.054,163.348c-1.017,0-1.695-0.678-1.695-1.695
	s0.678-1.695,1.695-1.695c1.017,0,1.695,0.678,1.695,1.695S302.072,163.348,301.054,163.348z"/>
<path style="fill:#CED5E0;" d="M301.054,151.481L301.054,151.481c-0.339,0-0.678-0.339-0.678-0.678v-1.695
	c0-0.339,0.339-0.678,0.678-0.678l0,0c0.339,0,0.678,0.339,0.678,0.678v1.695C301.732,151.142,301.393,151.481,301.054,151.481z"/>
<path style="fill:#324A5E;" d="M369.547,278.294c-1.017,0-2.034-0.339-2.713-0.678c-54.252-36.281-112.572-155.974-114.946-161.06
	c-1.356-2.374,0-5.425,2.373-6.781c2.373-1.356,5.425,0,6.781,2.374c0.678,1.356,59.677,122.405,111.555,156.991
	c2.374,1.695,3.052,4.747,1.356,6.781C372.599,277.616,371.242,278.294,369.547,278.294z"/>
<g>
	<path style="fill:#2C9984;" d="M239.004,122.321c0,0-14.58,33.568-18.988,93.245l-42.723-29.16l-8.477,18.31l48.148,34.585
		c9.833,5.086,22.718-0.339,25.091-11.189c0-0.678,8.816-36.62,8.816-36.62C247.142,155.55,239.004,122.321,239.004,122.321z"/>
	<path style="fill:#2C9984;" d="M169.155,204.715c0,0,37.637,32.551,52.895,36.281l-1.356-7.799l-48.826-28.482L169.155,204.715z"/>
</g>
<g>
</g>
<g>
</g>
<g>
</g>
<g>
</g>
<g>
</g>
<g>
</g>
<g>
</g>
<g>
</g>
<g>
</g>
<g>
</g>
<g>
</g>
<g>
</g>
<g>
</g>
<g>
</g>
<g>
</g>
</svg>
