<?xml version="1.0" encoding="iso-8859-1"?>
<!-- Generator: Adobe Illustrator 19.0.0, SVG Export Plug-In . SVG Version: 6.00 Build 0)  -->
<svg version="1.1" id="Capa_1" xmlns="http://www.w3.org/2000/svg" xmlns:xlink="http://www.w3.org/1999/xlink" x="0px" y="0px"
	 viewBox="0 0 512 512" style="enable-background:new 0 0 512 512;" xml:space="preserve">
<g>
	<g transform="translate(1 1)">
		<path style="fill:#F57C00;" d="M374.467,348.866v136.533c-0.028,9.414-7.652,17.039-17.067,17.067H152.6
			c-9.414-0.028-17.039-7.653-17.067-17.067V348.866H374.467z"/>
		<path style="fill:#FF9801;" d="M348.867,348.866v136.533c-0.028,9.414-7.653,17.039-17.067,17.067H152.6
			c-9.414-0.028-17.039-7.653-17.067-17.067V348.866H348.867z"/>
		<polygon style="fill:#D84315;" points="374.467,348.866 374.467,400.066 348.867,414.658 348.867,348.866 		"/>
		<path style="fill:#FF5722;" d="M348.867,348.866v65.792l-85.419,48.811c-5.243,2.958-11.652,2.958-16.896,0l-111.019-63.403v-51.2
			H348.867z"/>
		<path style="fill:#2E7D32;" d="M502.467,169.666c0,0,0,34.133-25.6,34.133c0.145,6.833-2.505,13.429-7.338,18.262
			c-4.833,4.833-11.429,7.483-18.262,7.338c0.145,6.833-2.505,13.429-7.338,18.262c-4.833,4.833-11.429,7.483-18.262,7.338H84.333
			c-6.833,0.145-13.429-2.505-18.262-7.338c-4.833-4.833-7.483-11.429-7.338-18.262c-6.833,0.145-13.429-2.505-18.262-7.338
			c-4.833-4.833-7.483-11.429-7.338-18.262c-25.6,0-25.6-34.133-25.6-34.133H502.467z"/>
		<g>
			<path style="fill:#4CAF50;" d="M476.867,169.666c0,0,0,34.133-25.6,34.133c0.145,6.833-2.505,13.429-7.338,18.262
				c-4.833,4.833-11.429,7.483-18.262,7.338c0.145,6.833-2.505,13.429-7.338,18.262c-4.833,4.833-11.429,7.483-18.262,7.338H84.333
				c-6.833,0.145-13.429-2.505-18.262-7.338c-4.833-4.833-7.483-11.429-7.338-18.262c-6.833,0.145-13.429-2.505-18.262-7.338
				c-4.833-4.833-7.483-11.429-7.338-18.262c-25.6,0-25.6-34.133-25.6-34.133H476.867z"/>
			<path style="fill:#4CAF50;" d="M345.453,87.746c-15.781-15.872-35.474-27.294-57.088-33.109
				c5.123-15.731,13.761-30.089,25.259-41.984c-11.073-0.939-22.171,1.5-31.829,6.997c-13.353,7.874-24.99,18.35-34.219,30.805
				c-2.048,2.645-3.84,5.12-5.205,7.253c-0.597,0.853-1.195,1.621-1.621,2.389c-0.171-0.768-0.256-1.536-0.427-2.219
				c-1.674-8.751-1.876-17.721-0.597-26.539c1.074-8.222,3.345-16.243,6.741-23.808c-15.026,4.872-27.12,16.154-33.024,30.805
				c-3.422,6.994-6.137,14.312-8.107,21.845C157.867,80.189,127.002,126.687,127,178.199v59.733
				c-0.024,25.208,7.43,49.856,21.419,70.827c2.706,4.043,5.761,7.841,9.131,11.349l4.011,4.352
				c7.936,6.571,15.787,12.971,23.723,19.456l18.517,11.349c0.085,0,0.085,0.085,0.171,0l23.723,6.656
				c4.767,1.326,9.612,2.352,14.507,3.072c4.182,0.612,8.403,0.926,12.629,0.939h0.341c9.182-0.137,18.307-1.486,27.136-4.011
				l23.723-6.656c0.085,0.085,0.085,0,0.171,0l18.517-11.349c6.571-5.376,17.152-13.995,23.723-19.456l4.011-4.352
				c3.37-3.509,6.425-7.306,9.131-11.349c13.989-20.97,21.443-45.619,21.419-70.827v-59.733
				C383.049,144.247,369.532,111.683,345.453,87.746z"/>
		</g>
		<path style="fill:#2E7D32;" d="M383,178.199v59.733c0.024,25.208-7.43,49.856-21.419,70.827
			c-2.706,4.043-5.761,7.841-9.131,11.349l-4.011,4.352c-6.571,5.461-17.152,14.08-23.723,19.456L306.2,355.266
			c-0.085,0-0.085,0.085-0.171,0l-23.723,6.656c-8.829,2.525-17.954,3.874-27.136,4.011h-0.341
			c-4.227-0.012-8.447-0.326-12.629-0.939c4.895-0.72,9.74-1.746,14.507-3.072l23.723-6.656c0.085,0.085,0.085,0,0.171,0
			l18.517-11.349c6.571-5.376,17.152-13.995,23.723-19.456l4.011-4.352c3.37-3.509,6.425-7.306,9.131-11.349
			c13.989-20.97,21.443-45.619,21.419-70.827v-59.733c-0.104-57.804-38.854-108.399-94.635-123.563
			c4.18-12.715,10.627-24.568,19.029-34.987c9.658-5.497,20.756-7.937,31.829-6.997c-11.498,11.895-20.136,26.253-25.259,41.984
			C344.146,69.8,382.896,120.395,383,178.199z"/>
		<g>
			<circle style="fill:#E6E7E8;" cx="195.267" cy="161.133" r="17.067"/>
			<circle style="fill:#E6E7E8;" cx="314.733" cy="161.133" r="17.067"/>
		</g>
		<path style="fill:#FF9801;" d="M262.409,268.209l23.491-36.88c1.912-2.982,1.324-6.918-1.375-9.211l-23.491-21.074
			c-3.467-2.99-8.601-2.99-12.068,0l-23.491,21.074c-2.699,2.294-3.287,6.23-1.375,9.211l23.49,36.88
			c1.692,2.418,4.458,3.857,7.409,3.857S260.717,270.627,262.409,268.209z"/>
		<g>
			<path style="fill:#FFEB3A;" d="M152.6,314.733L152.6,314.733c9.426,0,17.067,7.641,17.067,17.067v17.067
				c0,9.426-7.641,17.067-17.067,17.067l0,0c-9.426,0-17.067-7.641-17.067-17.067v-17.067
				C135.533,322.374,143.174,314.733,152.6,314.733z"/>
			<path style="fill:#FFEB3A;" d="M186.733,331.799L186.733,331.799c9.426,0,17.067,7.641,17.067,17.067v17.067
				c0,9.426-7.641,17.067-17.067,17.067l0,0c-9.426,0-17.067-7.641-17.067-17.067v-17.067
				C169.667,339.44,177.308,331.799,186.733,331.799z"/>
			<path style="fill:#FFEB3A;" d="M220.867,340.333L220.867,340.333c9.426,0,17.067,7.641,17.067,17.067v17.067
				c0,9.426-7.641,17.067-17.067,17.067l0,0c-9.426,0-17.067-7.641-17.067-17.067v-17.067
				C203.8,347.974,211.441,340.333,220.867,340.333z"/>
			<path style="fill:#FFEB3A;" d="M357.4,365.933L357.4,365.933c-9.426,0-17.067-7.641-17.067-17.067v-17.067
				c0-9.426,7.641-17.067,17.067-17.067l0,0c9.426,0,17.067,7.641,17.067,17.067v17.067
				C374.467,358.292,366.826,365.933,357.4,365.933z"/>
			<path style="fill:#FFEB3A;" d="M323.267,382.999L323.267,382.999c-9.426,0-17.067-7.641-17.067-17.067v-17.067
				c0-9.426,7.641-17.067,17.067-17.067l0,0c9.426,0,17.067,7.641,17.067,17.067v17.067
				C340.333,375.358,332.692,382.999,323.267,382.999z"/>
			<path style="fill:#FFEB3A;" d="M289.133,391.533L289.133,391.533c-9.426,0-17.067-7.641-17.067-17.067v-17.067
				c0-9.426,7.641-17.067,17.067-17.067l0,0c9.426,0,17.067,7.641,17.067,17.067v17.067
				C306.2,383.892,298.559,391.533,289.133,391.533z"/>
		</g>
	</g>
	<g>
		<path d="M196.267,136.533c-14.138,0-25.6,11.462-25.6,25.6s11.462,25.6,25.6,25.6s25.6-11.462,25.6-25.6
			C221.851,148.001,210.399,136.548,196.267,136.533z M196.267,170.666c-4.713,0-8.533-3.82-8.533-8.533s3.821-8.533,8.533-8.533
			s8.533,3.821,8.533,8.533C204.795,166.844,200.978,170.661,196.267,170.666z"/>
		<circle cx="315.733" cy="162.133" r="25.6"/>
		<path d="M267.733,195.691c-6.71-5.9-16.757-5.9-23.467,0l-23.492,21.075c-5.775,5.101-6.992,13.64-2.871,20.15l23.492,36.875
			c3.258,4.879,8.737,7.808,14.604,7.808c5.867,0,11.346-2.93,14.604-7.808l23.496-36.875c4.117-6.512,2.899-15.049-2.875-20.15
			L267.733,195.691z M256.212,264.624h-0.425l-22.829-35.842l23.375-20.392l22.717,20.383L256.212,264.624z"/>
		<path d="M503.467,162.133H391.355c-6.516-51.565-41.72-94.969-90.83-111.987c4.787-11.222,11.554-21.49,19.98-30.313
			c2.414-2.293,3.273-5.78,2.201-8.932s-3.881-5.391-7.193-5.735c-28.744-3.023-52.328,16.459-66.77,32.737
			c0.685-8.812,2.833-17.448,6.357-25.554c1.493-2.981,1.112-6.558-0.975-9.158s-5.496-3.746-8.73-2.934
			c-28.367,7.09-41.123,37.649-46.161,54.824c-43.02,19.61-72.785,60.135-78.626,107.052H8.533
			c-2.263-0.001-4.434,0.898-6.035,2.499c-1.6,1.6-2.499,3.771-2.499,6.035c0,13.25,5.754,37.108,26.479,41.842
			c2.441,13.031,12.609,23.24,25.629,25.734c3.014,15.796,17.159,26.989,33.225,26.291h36.61
			c3.094,16.532,9.26,32.336,18.179,46.595c-7.517,4.641-12.102,12.837-12.122,21.671v17.067c0.008,1.84,0.216,3.673,0.619,5.468
			c-0.395,0.974-0.605,2.014-0.619,3.066v128c0.015,14.132,11.468,25.585,25.6,25.6h204.8c14.132-0.015,25.585-11.468,25.6-25.6
			v-128c-0.014-1.051-0.224-2.091-0.619-3.066c0.403-1.795,0.61-3.628,0.619-5.468v-17.067c-0.02-8.834-4.605-17.031-12.122-21.671
			c8.919-14.259,15.085-30.064,18.179-46.595h36.61c16.065,0.698,30.211-10.496,33.225-26.291
			c13.021-2.494,23.188-12.703,25.629-25.734C506.246,207.774,512,183.916,512,170.666c0.001-2.263-0.898-4.434-2.499-6.035
			C507.901,163.031,505.73,162.132,503.467,162.133z M85.333,247.466c-4.611,0.298-9.128-1.404-12.395-4.671
			c-3.268-3.268-4.97-7.784-4.671-12.395c0.001-2.263-0.898-4.434-2.499-6.035c-1.6-1.6-3.771-2.499-6.035-2.499
			c-4.611,0.298-9.128-1.404-12.395-4.671c-3.268-3.268-4.97-7.784-4.671-12.395c0.001-2.263-0.898-4.434-2.499-6.035
			c-1.6-1.6-3.771-2.499-6.035-2.499c-10.454,0-14.504-9.617-16.075-17.067h101.408v59.733c0,2.864,0.165,5.699,0.339,8.533H85.333z
			 M366.933,486.399c-0.005,4.711-3.822,8.529-8.533,8.533H153.6c-4.711-0.005-8.529-3.822-8.533-8.533v-70.63l98.229,56.13
			c7.876,4.478,17.528,4.478,25.404,0l98.234-56.13V486.399z M366.933,396.115l-106.704,60.968c-2.621,1.5-5.841,1.5-8.463,0
			l-106.7-60.968v-22.221c5.838,2.199,12.294,2.089,18.054-0.307c2.988,11.147,13.072,18.91,24.613,18.946
			c4.411-0.028,8.738-1.209,12.551-3.426c6.062,9.65,17.782,14.119,28.73,10.954c10.948-3.165,18.475-13.199,18.452-24.595v-0.299
			c2.862,0.188,5.715,0.299,8.533,0.299c2.819,0,5.671-0.111,8.533-0.299v0.299c-0.023,11.396,7.504,21.43,18.452,24.595
			c10.948,3.165,22.668-1.303,28.73-10.954c3.813,2.217,8.14,3.398,12.551,3.426c11.54-0.036,21.625-7.8,24.613-18.946
			c5.76,2.396,12.216,2.506,18.054,0.307V396.115z M145.067,349.866v-17.067c0-4.713,3.82-8.533,8.533-8.533s8.533,3.82,8.533,8.533
			v17.067c0,4.713-3.821,8.533-8.533,8.533S145.067,354.579,145.067,349.866z M179.2,366.933v-17.067
			c0-4.713,3.821-8.533,8.533-8.533c4.713,0,8.533,3.821,8.533,8.533v17.067c0,4.713-3.821,8.533-8.533,8.533
			C183.021,375.466,179.2,371.646,179.2,366.933z M213.333,375.466v-17.067c0-4.713,3.821-8.533,8.533-8.533
			c4.713,0,8.533,3.82,8.533,8.533v17.067c0,4.713-3.821,8.533-8.533,8.533C217.154,383.999,213.333,380.179,213.333,375.466z
			 M281.6,375.466v-17.067c0-4.713,3.821-8.533,8.533-8.533c4.713,0,8.533,3.82,8.533,8.533v17.067c0,4.713-3.821,8.533-8.533,8.533
			C285.421,383.999,281.6,380.179,281.6,375.466z M315.733,366.933v-17.067c0-4.713,3.821-8.533,8.533-8.533
			s8.533,3.821,8.533,8.533v17.067c0,4.713-3.82,8.533-8.533,8.533S315.733,371.646,315.733,366.933z M366.933,349.866
			c0,4.713-3.82,8.533-8.533,8.533s-8.533-3.821-8.533-8.533v-17.067c0-4.713,3.82-8.533,8.533-8.533s8.533,3.82,8.533,8.533
			V349.866z M375.467,238.933c0.051,24.636-7.594,48.672-21.867,68.752c-9.587,1.867-17.274,9.029-19.812,18.46
			c-11.439-4.668-24.577-0.411-31.104,10.079c-3.813-2.217-8.14-3.397-12.551-3.425c-13.987,0.022-25.369,11.264-25.565,25.25
			c-5.704,0.428-11.433,0.428-17.137,0c-0.195-13.986-11.577-25.228-25.565-25.25c-4.411,0.028-8.738,1.208-12.551,3.425
			c-6.526-10.49-19.665-14.748-31.103-10.079c-2.538-9.431-10.226-16.594-19.813-18.461c-14.273-20.08-21.918-44.116-21.867-68.752
			v-59.733c-0.047-43.79,23.922-84.079,62.427-104.933c1.192,1.241,2.738,2.082,4.428,2.408c2.232,0.386,4.525-0.136,6.371-1.449
			c1.846-1.313,3.091-3.308,3.458-5.543c2.874-15.656,9.636-30.34,19.667-42.7c-2.183,11.694-2.006,23.706,0.521,35.33
			c0.061,0.425,0.155,0.845,0.282,1.255c1.389,5.899,3.452,11.62,6.147,17.048c2.114,4.204,7.232,5.903,11.441,3.799
			c4.209-2.104,5.92-7.218,3.826-11.432c-1.664-3.348-3.019-6.841-4.047-10.436c1.228-1.785,2.606-3.714,4.281-5.88
			c10.067-14.101,23.776-25.202,39.663-32.116c-5.629,8.488-10.126,17.673-13.379,27.325c-0.18,0.366-0.333,0.745-0.458,1.133
			c-4.406,13.474-5.867,27.737-4.284,41.825c0.492,4.306,4.133,7.559,8.467,7.567c0.326,0.001,0.652-0.018,0.975-0.058
			c2.249-0.254,4.306-1.392,5.716-3.163c1.41-1.771,2.058-4.03,1.801-6.279c-0.983-8.856-0.501-17.814,1.429-26.514
			c47.954,16.791,80.099,62.005,80.205,112.814V238.933z M477.867,196.266c-2.263-0.001-4.434,0.898-6.035,2.499
			c-1.6,1.6-2.499,3.771-2.499,6.035c0.298,4.611-1.404,9.128-4.672,12.395c-3.267,3.267-7.784,4.97-12.395,4.672
			c-2.263-0.001-4.434,0.898-6.035,2.499c-1.6,1.6-2.499,3.771-2.499,6.035c0.298,4.611-1.404,9.128-4.672,12.395
			c-3.267,3.267-7.784,4.97-12.395,4.672h-34.472c0.173-2.834,0.339-5.669,0.339-8.533v-59.733h101.404
			C492.367,186.658,488.317,196.266,477.867,196.266z"/>
	</g>
</g>
<g>
</g>
<g>
</g>
<g>
</g>
<g>
</g>
<g>
</g>
<g>
</g>
<g>
</g>
<g>
</g>
<g>
</g>
<g>
</g>
<g>
</g>
<g>
</g>
<g>
</g>
<g>
</g>
<g>
</g>
</svg>
