<?xml version="1.0" encoding="iso-8859-1"?>
<!-- Generator: Adobe Illustrator 19.0.0, SVG Export Plug-In . SVG Version: 6.00 Build 0)  -->
<svg version="1.1" id="Layer_1" xmlns="http://www.w3.org/2000/svg" xmlns:xlink="http://www.w3.org/1999/xlink" x="0px" y="0px"
	 viewBox="0 0 512 512" style="enable-background:new 0 0 512 512;" xml:space="preserve">
<circle style="fill:#324A5E;" cx="256" cy="256" r="256"/>
<path style="fill:#2B3B4E;" d="M506.218,310.265L325.244,130.263l-29.594-12.448H180.134L153.715,143.3l-10.343,33.616
	l-36.49,102.603L328.833,501.47C417.745,475.129,486.455,401.811,506.218,310.265z"/>
<path style="fill:#CFDBE6;" d="M345.643,312.889h-8.62V179.31c0-33.758-27.465-61.223-61.223-61.223h-68.048
	c-33.756,0-61.221,27.465-61.221,61.223v34.023h-8.62V179.31c0-38.51,31.332-69.842,69.842-69.842h68.048
	c38.51,0,69.842,31.332,69.842,69.842v133.579H345.643z"/>
<path style="fill:#B8C9D9;" d="M275.801,109.468h-37.614v8.62h37.614c33.758,0,61.223,27.465,61.223,61.223v133.579h8.62V179.31
	C345.643,140.8,314.311,109.468,275.801,109.468z"/>
<path style="fill:#E6F3FF;" d="M341.333,398.222L341.333,398.222c-31.418,0-56.889-25.471-56.889-56.889v-56.889
	c0-31.418,25.471-56.889,56.889-56.889l0,0c31.418,0,56.889,25.471,56.889,56.889v56.889
	C398.222,372.752,372.752,398.222,341.333,398.222z"/>
<path style="fill:#CFDBE6;" d="M341.333,227.556L341.333,227.556c-0.097,0-0.191,0.007-0.286,0.007v170.653
	c0.097,0,0.19,0.007,0.286,0.007l0,0c31.418,0,56.889-25.471,56.889-56.889v-56.889
	C398.222,253.026,372.752,227.556,341.333,227.556z"/>
<rect x="331.852" y="255.138" style="fill:#31BAFD;" width="18.963" height="34.478"/>
<rect x="341.04" y="255.138" style="fill:#2B9ED8;" width="9.768" height="34.478"/>
<circle style="fill:#F9B54C;" cx="142.222" cy="241.778" r="51.717"/>
<path style="fill:#E09532;" d="M193.939,241.778c0-28.562-23.154-51.717-51.717-51.717v103.434
	C170.786,293.495,193.939,270.339,193.939,241.778z"/>
<circle style="fill:#FFD15D;" cx="142.222" cy="241.778" r="35.34"/>
<path style="fill:#F9B54C;" d="M177.562,241.778c0-19.518-15.822-35.34-35.34-35.34v70.68
	C161.74,277.118,177.562,261.296,177.562,241.778z"/>
<g>
</g>
<g>
</g>
<g>
</g>
<g>
</g>
<g>
</g>
<g>
</g>
<g>
</g>
<g>
</g>
<g>
</g>
<g>
</g>
<g>
</g>
<g>
</g>
<g>
</g>
<g>
</g>
<g>
</g>
</svg>
