<?xml version="1.0" encoding="iso-8859-1"?>
<!-- Generator: Adobe Illustrator 19.0.0, SVG Export Plug-In . SVG Version: 6.00 Build 0)  -->
<svg version="1.1" id="Capa_1" xmlns="http://www.w3.org/2000/svg" xmlns:xlink="http://www.w3.org/1999/xlink" x="0px" y="0px"
	 viewBox="0 0 503.917 503.917" style="enable-background:new 0 0 503.917 503.917;" xml:space="preserve">
<g>
	<g>
		<path d="M393.095,97.173C370.744,38.655,314.6,0,251.959,0S133.174,38.655,110.822,97.173
			c-22.352,58.518-6.275,124.759,40.415,166.519v147.898c0.058,50.967,41.36,92.27,92.328,92.328h16.787
			c50.967-0.058,92.27-41.36,92.328-92.328V263.692C399.37,221.931,415.447,155.69,393.095,97.173z M335.893,411.589
			c-0.048,41.7-33.841,75.493-75.541,75.541h-16.787c-41.7-0.048-75.493-33.841-75.541-75.541V294.081h167.869V411.589z
			 M168.024,277.294v-50.361c0.015-13.9,11.28-25.165,25.18-25.18h50.361v75.541H168.024z M335.893,277.294h-75.541v-75.541h50.361
			c13.9,0.015,25.165,11.28,25.18,25.18V277.294z M310.713,184.966H284.33c2.788-10.048,0.68-20.823-5.689-29.08
			c-6.369-8.257-16.255-13.032-26.683-12.887h-8.393c-9.271,0-16.787-7.516-16.787-16.787c0-9.271,7.516-16.787,16.787-16.787h25.18
			c4.636,0,8.393-3.758,8.393-8.393s-3.758-8.393-8.393-8.393h-8.393v-8.393c0-4.636-3.758-8.393-8.393-8.393
			s-8.393,3.758-8.393,8.393v8.393c-18.542,0-33.574,15.031-33.574,33.574c0,18.542,15.031,33.574,33.574,33.574h8.393
			c9.267,0.009,16.778,7.52,16.787,16.787c-0.005,2.953-0.799,5.85-2.3,8.393h-73.241c-11.521,0.018-22.523,4.796-30.401,13.203
			c-22.276-42.379-11.641-94.582,25.438-124.869s90.355-30.287,127.434,0s47.714,82.49,25.438,124.869
			C333.236,189.762,322.234,184.984,310.713,184.966z M352.68,239.922v-12.989c-0.059-4.072-0.718-8.114-1.958-11.993
			c31.687-49.151,22.408-114.123-21.77-152.44c-44.178-38.317-109.809-38.317-153.987,0c-44.178,38.317-53.457,103.289-21.77,152.44
			c-1.239,3.88-1.899,7.921-1.958,11.993v12.989c-34.92-39.547-43.403-95.898-21.672-143.973
			c21.731-48.075,69.635-78.937,122.393-78.852c52.758-0.085,100.662,30.777,122.393,78.852
			C396.083,144.025,387.6,200.375,352.68,239.922z"/>
	</g>
</g>
<g>
</g>
<g>
</g>
<g>
</g>
<g>
</g>
<g>
</g>
<g>
</g>
<g>
</g>
<g>
</g>
<g>
</g>
<g>
</g>
<g>
</g>
<g>
</g>
<g>
</g>
<g>
</g>
<g>
</g>
</svg>
