<?xml version="1.0" encoding="iso-8859-1"?>
<!-- Generator: Adobe Illustrator 19.0.0, SVG Export Plug-In . SVG Version: 6.00 Build 0)  -->
<svg version="1.1" id="Capa_1" xmlns="http://www.w3.org/2000/svg" xmlns:xlink="http://www.w3.org/1999/xlink" x="0px" y="0px"
	 viewBox="0 0 367.941 367.941" style="enable-background:new 0 0 367.941 367.941;" xml:space="preserve">
<polygon style="fill:#CCE4FF;" points="360.002,7.92 248.002,359.92 175.602,192.32 "/>
<g>
	<path style="fill:#007AFF;" d="M5.138,135.392l164.456,63.192l71.064,164.512c1.272,2.936,4.168,4.824,7.344,4.824
		c0.136,0,0.264,0,0.4-0.008c3.336-0.168,6.208-2.384,7.224-5.56l112-352c0.12-0.368,0.096-0.744,0.16-1.112s0.144-0.72,0.152-1.104
		c0.024-0.784-0.096-1.536-0.296-2.28c-0.048-0.168-0.008-0.344-0.064-0.512c-0.008-0.032-0.04-0.056-0.048-0.088
		c-0.328-0.92-0.824-1.768-1.464-2.52c-0.208-0.248-0.48-0.408-0.712-0.624c-0.384-0.352-0.72-0.744-1.184-1.024
		c-0.112-0.064-0.24-0.08-0.352-0.136c-0.336-0.184-0.688-0.28-1.048-0.416c-0.56-0.208-1.112-0.384-1.696-0.464
		c-0.368-0.048-0.728-0.056-1.112-0.048c-0.64,0.008-1.256,0.088-1.88,0.248c-0.216,0.056-0.432,0.008-0.648,0.08l-352,120
		c-3.2,1.08-5.368,4.048-5.432,7.416C-0.062,131.136,1.986,134.184,5.138,135.392z M246.858,337.112l-61.76-142.976L342.402,36.824
		L246.858,337.112z M330.018,26.592L173.626,182.984L31.482,128.368L330.018,26.592z"/>
	<path style="fill:#007AFF;" d="M8.002,367.92c2.048,0,4.096-0.784,5.656-2.344l112-112c3.128-3.128,3.128-8.184,0-11.312
		c-3.128-3.128-8.184-3.128-11.312,0l-112,112c-3.128,3.128-3.128,8.184,0,11.312C3.906,367.136,5.954,367.92,8.002,367.92z"/>
	<path style="fill:#007AFF;" d="M146.346,298.264l-56,56c-3.128,3.128-3.128,8.184,0,11.312c1.56,1.56,3.608,2.344,5.656,2.344
		s4.096-0.784,5.656-2.344l56-56c3.128-3.128,3.128-8.184,0-11.312S149.474,295.136,146.346,298.264z"/>
	<path style="fill:#007AFF;" d="M8.002,279.92c2.048,0,4.096-0.784,5.656-2.344l56-56c3.128-3.128,3.128-8.184,0-11.312
		s-8.184-3.128-11.312,0l-56,56c-3.128,3.128-3.128,8.184,0,11.312C3.906,279.136,5.954,279.92,8.002,279.92z"/>
</g>
<g>
</g>
<g>
</g>
<g>
</g>
<g>
</g>
<g>
</g>
<g>
</g>
<g>
</g>
<g>
</g>
<g>
</g>
<g>
</g>
<g>
</g>
<g>
</g>
<g>
</g>
<g>
</g>
<g>
</g>
</svg>
