<?xml version="1.0" encoding="iso-8859-1"?>
<!-- Generator: Adobe Illustrator 19.0.0, SVG Export Plug-In . SVG Version: 6.00 Build 0)  -->
<svg version="1.1" id="Capa_1" xmlns="http://www.w3.org/2000/svg" xmlns:xlink="http://www.w3.org/1999/xlink" x="0px" y="0px"
	 viewBox="0 0 398.637 398.637" style="enable-background:new 0 0 398.637 398.637;" xml:space="preserve">
<g>
	<g>
		<path d="M367.987,247.567c-1.362-3.527-5.008-5.619-8.74-5.015l-187.6,56l-79.12-264.88c-0.586-1.917-1.871-3.545-3.6-4.56
			l-47.52-28.4c-4.026-1.82-8.765-0.031-10.585,3.995c-1.562,3.456-0.483,7.534,2.585,9.765h-0.24l44.88,26.72l79.12,266
			c-23.988,11.284-34.287,39.878-23.002,63.866c11.284,23.988,39.878,34.286,63.866,23.002
			c21.325-10.032,32.213-34.061,25.696-56.708c-3.947-13.345-13.492-24.32-26.16-30.08l165.84-49.36
			C367.528,256.32,369.579,251.688,367.987,247.567z M208.447,341.912c4.904,16.979-4.886,34.719-21.865,39.622
			c-16.979,4.904-34.719-4.886-39.622-21.865c-4.904-16.979,4.886-34.719,21.865-39.622c2.791-0.806,5.678-1.228,8.582-1.255
			C191.725,318.793,204.345,328.193,208.447,341.912z"/>
	</g>
</g>
<g>
	<g>
		<path d="M332.632,219.678c-0.008-0.029-0.017-0.058-0.026-0.086l-23.52-79.12c-2.576-8.776-11.778-13.801-20.554-11.226
			c-0.029,0.008-0.058,0.017-0.086,0.026l-63.2,18.8l-63.2,18.8c-8.776,2.576-13.801,11.778-11.226,20.554
			c0.008,0.029,0.017,0.058,0.026,0.086l23.44,79.2c2.125,7.053,8.634,11.87,16,11.84c1.6-0.012,3.189-0.254,4.72-0.72l63.2-18.8
			l63.2-18.8C330.182,237.656,335.208,228.454,332.632,219.678z M190.447,262.232c-0.217,0.148-0.503,0.148-0.72,0l-23.52-79.12
			c-0.129-0.289-0.027-0.629,0.24-0.8v-0.08l55.52-16.56l24,80L190.447,262.232z M316.927,224.872l-55.52,16.56l-24-80l55.44-16.8
			c0.249,0.013,0.467,0.169,0.56,0.4l23.52,79.12V224.872z"/>
	</g>
</g>
<g>
	<g>
		<path d="M272.767,105.352l-16.8-56.48c-2.657-8.747-11.873-13.712-20.64-11.12l-51.36,15.28l-51.36,15.28
			c-8.779,2.623-13.786,11.85-11.2,20.64l16.8,56.56c2.616,8.764,11.842,13.747,20.605,11.13c0.012-0.003,0.023-0.007,0.035-0.01
			l102.72-30.64C270.346,123.369,275.353,114.142,272.767,105.352z M154.207,141.272c-0.208,0.175-0.512,0.175-0.72,0l-16.8-56.48
			c-0.175-0.208-0.175-0.512,0-0.72l43.76-13.04l17.12,57.6L154.207,141.272z M257.007,110.632v0.08l-43.76,13.04l-17.12-57.6
			l43.76-13.04c0.256-0.011,0.487,0.154,0.56,0.4l16.8,56.56C257.284,110.29,257.19,110.509,257.007,110.632z"/>
	</g>
</g>
<g>
</g>
<g>
</g>
<g>
</g>
<g>
</g>
<g>
</g>
<g>
</g>
<g>
</g>
<g>
</g>
<g>
</g>
<g>
</g>
<g>
</g>
<g>
</g>
<g>
</g>
<g>
</g>
<g>
</g>
</svg>
